<svg width="24" height="24" viewBox="0 0 24 24" fill="none" xmlns="http://www.w3.org/2000/svg">
<path d="M12 21C12 21 6 14 6 9C6 7.4087 6.63214 5.88258 7.75736 4.75736C8.88258 3.63214 10.4087 3 12 3C13.5913 3 15.1174 3.63214 16.2426 4.75736C17.3679 5.88258 18 7.4087 18 9C18 14 12 21 12 21ZM12 7C11.6044 7 11.2178 7.1173 10.8889 7.33706C10.56 7.55682 10.3036 7.86918 10.1522 8.23463C10.0009 8.60009 9.96126 9.00222 10.0384 9.39018C10.1156 9.77814 10.3061 10.1345 10.5858 10.4142C10.8655 10.6939 11.2219 10.8844 11.6098 10.9616C11.9978 11.0387 12.3999 10.9991 12.7654 10.8478C13.1308 10.6964 13.4432 10.44 13.6629 10.1111C13.8827 9.78224 14 9.39556 14 9C14 8.46957 13.7893 7.96086 13.4142 7.58579C13.0391 7.21071 12.5304 7 12 7V7Z" stroke="#878787" stroke-width="2" stroke-linecap="round" stroke-linejoin="round"/>
</svg>
